<?xml version="1.0" encoding="utf-8"?>
<!-- Generator: Adobe Illustrator 16.0.0, SVG Export Plug-In . SVG Version: 6.00 Build 0)  -->
<!DOCTYPE svg PUBLIC "-//W3C//DTD SVG 1.1//EN" "http://www.w3.org/Graphics/SVG/1.1/DTD/svg11.dtd">
<svg version="1.1" id="Layer_1" xmlns="http://www.w3.org/2000/svg" xmlns:xlink="http://www.w3.org/1999/xlink" x="0px" y="0px"
	 width="500px" height="500px" viewBox="0 0 500 500" enable-background="new 0 0 500 500" xml:space="preserve">
<path fill-rule="evenodd" clip-rule="evenodd" fill="#AAEDF7" d="M497.554,250.171c0,136.674-110.793,247.465-247.465,247.465
	c-136.672,0-247.466-110.791-247.466-247.465C2.623,113.5,113.417,2.707,250.089,2.707C386.761,2.707,497.554,113.5,497.554,250.171
	z"/>
<g>
	<defs>
		<path id="SVGID_1_" d="M497.554,250.171c0,136.674-110.793,247.465-247.465,247.465c-136.672,0-247.466-110.791-247.466-247.465
			C2.623,113.5,113.417,2.707,250.089,2.707C386.761,2.707,497.554,113.5,497.554,250.171z"/>
	</defs>
	<clipPath id="SVGID_2_">
		<use xlink:href="#SVGID_1_"  overflow="visible"/>
	</clipPath>
	<polygon clip-path="url(#SVGID_2_)" fill-rule="evenodd" clip-rule="evenodd" fill="#05ABC3" points="233.821,16.431 
		219.798,19.276 221.346,16.513 219.798,13.75 222.284,4.39 217.989,-10.653 207.246,5.73 205.549,8.266 197.645,11 210.833,11 
		204.239,14.874 190.334,21.202 195.862,26.691 201.94,39.057 199.282,45.77 189.571,41.736 184.845,39.009 169.712,40.979 
		172.141,45.697 171.375,49.924 159.145,55.626 148.729,55.188 140.833,64.359 126.226,69.341 115.5,82.443 93.658,98.562 
		84.883,117.504 82.009,122.8 75.169,108.127 57.251,116.464 46.582,127.551 36.608,140.689 37.972,151.047 50.787,138.016 
		57.127,144.916 55.546,152.31 53.977,159.646 61.044,167.212 56.448,183.024 57.23,186.906 74.122,182.588 90.228,171.31 
		100.241,171.454 108.308,169.507 109.248,173.676 122.894,171.389 133.802,171.923 141.018,180.556 153.526,189.704 
		163.583,194.123 172.355,191.581 183.887,203.104 187.228,212.023 186.998,215.746 191.41,221.098 209.276,223.599 
		221.346,232.442 233.975,232.805 234.345,234.702 241.058,237.321 246.518,240.401 254.591,241.817 258.404,248.507 
		261.98,257.842 264.216,263.303 259.007,273.337 243.456,287.493 243.536,301.221 233.348,328.517 215.228,338.202 
		199.906,353.093 199.6,366.613 185.508,387.277 174,397.429 174,402.738 163.03,406.912 163.391,412.525 158.811,417.121 
		158.449,431.5 160.963,433.441 160.212,443.318 165.931,451.268 171.177,458.148 170.149,462.485 159.409,460.617 139.632,442.746 
		122.223,415.469 115.079,394.41 113.403,378.449 111.396,364.98 108.308,339.001 102.357,316.275 75.835,292.676 70.233,280.745 
		60.635,257.755 55.189,241.86 61.304,223.599 71.752,196.587 59.301,195.89 49.989,191.581 47.433,178.163 40.56,176.902 
		34.197,170.58 27.729,170.919 17.739,152.385 -2.689,149.66 -17.101,370.12 33.504,452.802 154.486,496.367 158.474,488.557 
		160.032,485.319 166.98,482.325 179.461,488.135 193.199,488.707 193.454,478.387 209.44,489.846 230.992,494.983 252.221,495.695 
		282.149,485.382 300.305,487.097 307.569,489.495 313.9,489.894 317.604,493.935 334.212,525.239 471.575,470.626 497,378.451 
		497,343.573 482.486,369.743 477.393,347.885 447.908,387.277 442.072,390.165 437.236,387.277 430.575,391.432 423.181,390.165 
		430.229,366.4 429.845,355.581 436.736,334.041 436.192,316.275 437.036,309.697 445.991,272.86 436.192,239.897 437.207,235.439 
		440.696,227.597 438.829,217.542 428.571,211.339 423.145,213.765 418.685,209.86 413.336,200.809 402.496,205.808 
		390.784,204.916 372.094,204.905 363.696,196.882 357.192,191.581 351.009,178.869 337.207,169.008 336.303,162.189 
		334.212,159.282 332.67,156.313 334.212,149.66 336.229,139.446 330.689,130.284 327.818,129.326 328.301,119.132 332.214,114.29 
		334.35,107.822 347.456,101.289 347.503,89.458 357.192,80.693 371.638,78.117 376.313,74.569 382.263,75.306 386.396,73.438 
		397.416,78.822 402.429,77.982 393.141,71.502 385.785,71.411 379.354,64.997 373.563,60.152 370.503,71.411 366.229,76.509 
		353.058,77.89 341.634,71.335 334.592,55.474 339.563,54.847 347.456,39.729 343.005,38.106 334.592,40.335 325.414,34.963 
		318.559,37.387 316.355,23.571 313.332,19.276 297.914,17.881 295.365,15.304 300.256,13.75 293.827,10.049 286.307,13.75 
		282.24,11.931 277.268,5.27 283.516,-4.125 263.796,3.613 255.989,8.539 249.016,6.292 	"/>
</g>
<path opacity="0.4" fill-rule="evenodd" clip-rule="evenodd" fill="#246F77" d="M482.348,164c2.104,12,3.631,20.61,4.542,31.05
	c0.66,7.573,0.998,15.38,0.998,23.119c0,145.529-119.203,263.572-266.243,263.572c-33.753,0-66.04-6.181-95.756-17.519l0.004,0.025
	c36.503,21.217,78.931,33.382,124.196,33.382c136.672,0,247.465-110.79,247.465-247.462c0-7.269-0.313-14.754-0.927-21.865
	C494.699,205.986,489.808,185,482.35,164H482.348z"/>
</svg>
